<?xml version="1.0" encoding="UTF-8"?>
<svg xmlns="http://www.w3.org/2000/svg" xmlns:xlink="http://www.w3.org/1999/xlink" width="1614.2768" height="991.1165505523683"><defs><style type="text/css"><![CDATA[@import url("https://atlas.mindmup.com/_resources/22/fonts.css")]]></style></defs><rect width="100%" height="100%" fill="#FFFFFF"/><g transform="translate(835,605.5920505523683)" style="fill:none;"><g transform="translate(-279,-148)"><path d="M171,30Q171,410.6 361,353" stroke="#707070" stroke-width="1" stroke-linecap="round"/></g><g transform="translate(82,79.484375)"><path d="M50,126Q50,-33.599999999999994 120,24" stroke="#707070" stroke-width="1" stroke-linecap="round"/></g><g transform="translate(202,78.54517936706554)"><path d="M97,24L132,24" stroke="#707070" stroke-width="1" stroke-linecap="round"/></g><g transform="translate(334,78.54517936706554)"><path d="M107,24L137,24" stroke="#707070" stroke-width="1" stroke-linecap="round"/></g><g transform="translate(82,181.40794944763172)"><path d="M50,24Q50,157 120,100" stroke="#707070" stroke-width="1" stroke-linecap="round"/></g><g transform="translate(-409,-216.30958041048052)"><path d="M301,98Q301,-31.5 109,24" stroke="#707070" stroke-width="1" stroke-linecap="round"/></g><g transform="translate(-396,-148)"><path d="M288,30Q288,365.6 96,308" stroke="#707070" stroke-width="1" stroke-linecap="round"/></g><g transform="translate(-279,-289.5920505523683)"><path d="M171,172Q171,-33.599999999999994 361,24" stroke="#707070" stroke-width="1" stroke-linecap="round"/></g><g transform="translate(82,-575.5920505523683)"><path d="M43,310Q43,-24.600000000000023 105,33" stroke="#707070" stroke-width="1" stroke-linecap="round"/></g><g transform="translate(82,-289.5920505523683)"><path d="M43,24Q43,148.25 105,95" stroke="#707070" stroke-width="1" stroke-linecap="round"/></g><g transform="translate(187,-221.33035000000007)"><path d="M156,26Q156,24 197,24" stroke="#707070" stroke-width="1" stroke-linecap="round"/></g><g transform="translate(384.2768000000001,-221.33035000000007)"><path d="M132,24L162,24" stroke="#707070" stroke-width="1" stroke-linecap="round"/></g><g transform="translate(384.2768000000001,-221.33035000000007)"><path d="M71,24Q71,143 162,92" stroke="#707070" stroke-width="1" stroke-linecap="round"/></g><g transform="translate(384.2768000000001,-221.33035000000007)"><path d="M71,24Q71,217.6 162,160" stroke="#707070" stroke-width="1" stroke-linecap="round"/></g><g transform="translate(384.2768000000001,-357.33035000000007)"><path d="M71,160Q71,-33.599999999999994 162,24" stroke="#707070" stroke-width="1" stroke-linecap="round"/></g><g transform="translate(384.2768000000001,-289.33035000000007)"><path d="M71,92Q71,-27 162,24" stroke="#707070" stroke-width="1" stroke-linecap="round"/></g><g transform="translate(82,-289.5920505523683)"><path d="M43,24Q43,367.6 105,310" stroke="#707070" stroke-width="1" stroke-linecap="round"/></g><g transform="translate(187,-3.5920505523682777)"><path d="M114,24L144,24" stroke="#707070" stroke-width="1" stroke-linecap="round"/></g><g transform="translate(82,-439.5920505523683)"><path d="M43,174Q43,-33.599999999999994 105,24" stroke="#707070" stroke-width="1" stroke-linecap="round"/></g><g transform="translate(187,-439.5920505523683)"><path d="M75,24L105,24" stroke="#707070" stroke-width="1" stroke-linecap="round"/></g><g transform="translate(82,-489.5920505523683)"><path d="M43,224Q43,-21 105,15" stroke="#707070" stroke-width="1" stroke-linecap="round"/></g><g transform="translate(-422,-148)"><path d="M314,30Q314,537.6 122,480" stroke="#707070" stroke-width="1" stroke-linecap="round"/></g><g transform="translate(-465,-148)"><path d="M357,30Q357,208.6 165,151" stroke="#707070" stroke-width="1" stroke-linecap="round"/></g><g transform="translate(-418,-343.82644081115734)"><path d="M310,226Q310,-33.60000000000002 118,24" stroke="#707070" stroke-width="1" stroke-linecap="round"/></g><g transform="translate(-627,-343.82644081115734)"><path d="M268,24Q268,85.25 188,59" stroke="#707070" stroke-width="1" stroke-linecap="round"/></g><g transform="translate(-805,-317.9826755523683)"><path d="M188,33L158,33" stroke="#707070" stroke-width="1" stroke-linecap="round"/></g><g transform="translate(-600,-374.9826755523683)"><path d="M241,55Q241,-8 162,19" stroke="#707070" stroke-width="1" stroke-linecap="round"/></g><g transform="translate(-409,-221.33035000000007)"><path d="M793,24L109,29" stroke-dasharray="4, 4" stroke="#289548" stroke-width="1"/><path d="M122,34L109,29L122,24Z" fill="#289548" stroke="#289548" stroke-width="1"/></g><g transform="translate(-422,-221.33035000000007)"><path d="M806,24L122,553" stroke-dasharray="4, 4" stroke="#289548" stroke-width="1"/><path d="M135,549L122,553L129,541Z" fill="#289548" stroke="#289548" stroke-width="1"/></g><g transform="translate(546.2768000000001,-357.33035000000007)"><path d="M72,48L94,68" stroke-dasharray="4, 4" stroke="#289548" stroke-width="1"/><path d="M87,56L94,68L81,63Z" fill="#289548" stroke="#289548" stroke-width="1"/></g><g transform="translate(-418,-343.82644081115734)"><path d="M802,146L118,24" stroke-dasharray="4, 4" stroke="#289548" stroke-width="1"/><path d="M130,31L118,24L132,22Z" fill="#289548" stroke="#289548" stroke-width="1"/></g><g transform="translate(82,-221.33035000000007)"><path d="M302,24L100,427" stroke-dasharray="4, 4" stroke="#289548" stroke-width="1"/><path d="M110,417L100,427L102,413Z" fill="#289548" stroke="#289548" stroke-width="1"/></g><g transform="translate(-279,-148)"><rect x="0" y="0" width="341" height="60" border="1" rx="10" ry="10" style="fill:#1f3464;stroke:#707070;stroke-width:1px;"/><image xlink:href="image1.png" x="6" y="6" width="80" height="48"/><text font-family="NotoSans, 'Helvetica Neue', Roboto, Helvetica, Arial, sans-serif" font-size="18" font-weight="bold" lengthAdjust="spacingAndGlyphs" style="fill:#FFFFFF;"><tspan y="35" x="213" text-anchor="middle" textLength="244">IMDS – Inalfa Roof Systems</tspan></text></g><g transform="translate(-418,-343.82644081115734)"><rect x="0" y="0" width="118" height="48" border="1" rx="10" ry="10" style="fill:#289548;stroke:#707070;stroke-width:1px;"/><image xlink:href="image18.png" x="76" y="6" width="36" height="36"/><text font-family="NotoSans, 'Helvetica Neue', Roboto, Helvetica, Arial, sans-serif" font-size="12" font-weight="bold" lengthAdjust="spacingAndGlyphs" style="fill:#FFFFFF;"><tspan y="27" x="39" text-anchor="middle" textLength="65">Customers</tspan></text></g><g transform="translate(-600,-374.9826755523683)"><rect x="0" y="0" width="162" height="37" border="1" rx="10" ry="10" style="fill:#E0E0E0;stroke:#707070;stroke-width:1px;"/><image xlink:href="image19.png" x="131" y="6" width="25" height="25"/><text font-family="NotoSans, 'Helvetica Neue', Roboto, Helvetica, Arial, sans-serif" font-size="12" font-weight="bold" lengthAdjust="spacingAndGlyphs" style="fill:#4F4F4F;"><tspan y="22" x="66" text-anchor="middle" textLength="120">Material Data Sheet</tspan></text></g><g transform="translate(-627,-308.9826755523683)"><rect x="0" y="0" width="188" height="48" border="1" rx="10" ry="10" style="fill:#E0E0E0;stroke:#707070;stroke-width:1px;"/><image xlink:href="image20.png" x="157" y="12" width="25" height="25"/><text font-family="NotoSans, 'Helvetica Neue', Roboto, Helvetica, Arial, sans-serif" font-size="12" font-weight="bold" lengthAdjust="spacingAndGlyphs" style="fill:#4F4F4F;"><tspan y="18" x="79" text-anchor="middle" textLength="107">Conflict Minerals/</tspan><tspan y="36" x="79" text-anchor="middle" textLength="112">Extended Minerals</tspan></text></g><g transform="translate(-805,-317.9826755523683)"><rect x="0" y="0" width="158" height="66" border="1" rx="10" ry="10" style="fill:#E0E0E0;stroke:#707070;stroke-width:1px;"/><text font-family="NotoSans, 'Helvetica Neue', Roboto, Helvetica, Arial, sans-serif" font-size="12" font-weight="bold" lengthAdjust="spacingAndGlyphs" style="fill:#4F4F4F;"><tspan y="18" x="79" text-anchor="middle" textLength="102">Conflict Minerals</tspan><tspan y="36" x="79" text-anchor="middle" textLength="120">Reporting Template</tspan><tspan y="54" x="79" text-anchor="middle" textLength="42">(CMRT)</tspan></text></g><g transform="translate(-409,-216.30958041048052)"><rect x="0" y="0" width="109" height="48" border="1" rx="10" ry="10" style="fill:#289548;stroke:#707070;stroke-width:1px;"/><image xlink:href="image21.png" x="67" y="6" width="36" height="36"/><text font-family="NotoSans, 'Helvetica Neue', Roboto, Helvetica, Arial, sans-serif" font-size="12" font-weight="bold" lengthAdjust="spacingAndGlyphs" style="fill:#FFFFFF;"><tspan y="27" x="34" text-anchor="middle" textLength="56">Suppliers</tspan></text></g><g transform="translate(-465,-21.15333041048052)"><rect x="0" y="0" width="165" height="48" border="1" rx="10" ry="10" style="fill:#289548;stroke:#707070;stroke-width:1px;"/><image xlink:href="image23.png" x="123" y="6" width="36" height="36"/><text font-family="NotoSans, 'Helvetica Neue', Roboto, Helvetica, Arial, sans-serif" font-size="12" font-weight="bold" lengthAdjust="spacingAndGlyphs" style="fill:#FFFFFF;"><tspan y="27" x="62" text-anchor="middle" textLength="112">Support from/ to...</tspan></text></g><g transform="translate(-396,135.671875)"><rect x="0" y="0" width="96" height="48" border="1" rx="10" ry="10" style="fill:#289548;stroke:#707070;stroke-width:1px;"/><image xlink:href="image24.png" x="54" y="6" width="36" height="36"/><text font-family="NotoSans, 'Helvetica Neue', Roboto, Helvetica, Arial, sans-serif" font-size="12" font-weight="bold" lengthAdjust="spacingAndGlyphs" style="fill:#FFFFFF;"><tspan y="27" x="28" text-anchor="middle" textLength="43">Portals</tspan></text></g><g transform="translate(-422,307.5245)"><rect x="0" y="0" width="122" height="48" border="1" rx="10" ry="10" style="fill:#289548;stroke:#707070;stroke-width:1px;"/><image xlink:href="image25.png" x="80" y="6" width="36" height="36"/><text font-family="NotoSans, 'Helvetica Neue', Roboto, Helvetica, Arial, sans-serif" font-size="12" font-weight="bold" lengthAdjust="spacingAndGlyphs" style="fill:#FFFFFF;"><tspan y="27" x="41" text-anchor="middle" textLength="69">Documents</tspan></text></g><g transform="translate(82,-289.5920505523683)"><rect x="0" y="0" width="85" height="48" border="1" rx="10" ry="10" style="fill:#289548;stroke:#707070;stroke-width:1px;"/><image xlink:href="image2.png" x="6" y="6" width="36" height="36"/><text font-family="NotoSans, 'Helvetica Neue', Roboto, Helvetica, Arial, sans-serif" font-size="12" font-weight="bold" lengthAdjust="spacingAndGlyphs" style="fill:#FFFFFF;"><tspan y="27" x="63" text-anchor="middle" textLength="32">Tools</tspan></text></g><g transform="translate(187,-575.5920505523683)"><rect x="0" y="0" width="158" height="66" border="1" rx="10" ry="10" style="fill:#E0E0E0;stroke:#707070;stroke-width:1px;"/><text font-family="NotoSans, 'Helvetica Neue', Roboto, Helvetica, Arial, sans-serif" font-size="12" font-weight="bold" lengthAdjust="spacingAndGlyphs" style="fill:#4F4F4F;"><tspan y="18" x="79" text-anchor="middle" textLength="50">MatWeb</tspan><tspan y="36" x="79" text-anchor="middle" textLength="126">MATERIAL PROPERTY</tspan><tspan y="54" x="79" text-anchor="middle" textLength="32">DATA</tspan></text></g><g transform="translate(187,-489.5920505523683)"><rect x="0" y="0" width="55" height="30" border="1" rx="10" ry="10" style="fill:#E0E0E0;stroke:#707070;stroke-width:1px;"/><text font-family="NotoSans, 'Helvetica Neue', Roboto, Helvetica, Arial, sans-serif" font-size="12" font-weight="bold" lengthAdjust="spacingAndGlyphs" style="fill:#4F4F4F;"><tspan y="18" x="28" text-anchor="middle" textLength="43">CAMDS</tspan></text></g><g transform="translate(187,-439.5920505523683)"><rect x="0" y="0" width="85" height="48" border="1" rx="10" ry="10" style="fill:#E0E0E0;stroke:#707070;stroke-width:1px;"/><image xlink:href="image3.png" x="6" y="6" width="36" height="36"/><text font-family="NotoSans, 'Helvetica Neue', Roboto, Helvetica, Arial, sans-serif" font-size="12" font-weight="bold" lengthAdjust="spacingAndGlyphs" style="fill:#4F4F4F;"><tspan y="27" x="63" text-anchor="middle" textLength="32">IMDS</tspan></text></g><g transform="translate(292,-439.5920505523683)"><rect x="0" y="0" width="164" height="48" border="1" rx="10" ry="10" style="fill:#E0E0E0;stroke:#707070;stroke-width:1px;"/><text font-family="NotoSans, 'Helvetica Neue', Roboto, Helvetica, Arial, sans-serif" font-size="12" font-weight="bold" lengthAdjust="spacingAndGlyphs" style="fill:#4F4F4F;"><tspan y="18" x="82" text-anchor="middle" textLength="148">Inalfa Roof Systems, Inc.</tspan><tspan y="36" x="82" text-anchor="middle" textLength="43">[28921]</tspan></text></g><g transform="translate(187,-218.59205055236828)"><rect x="0" y="0" width="166" height="48" border="1" rx="10" ry="10" style="fill:#E0E0E0;stroke:#707070;stroke-width:1px;"/><image xlink:href="image4.png" x="6" y="6" width="36" height="36"/><text font-family="NotoSans, 'Helvetica Neue', Roboto, Helvetica, Arial, sans-serif" font-size="12" font-weight="bold" lengthAdjust="spacingAndGlyphs" style="fill:#4F4F4F;"><tspan y="27" x="104" text-anchor="middle" textLength="113">SharePoint/ Teams</tspan></text></g><g transform="translate(384.2768000000001,-221.33035000000007)"><rect x="0" y="0" width="142" height="48" border="1" rx="10" ry="10" style="fill:#1f3464;stroke:#707070;stroke-width:1px;"/><image xlink:href="image5.png" x="6" y="12" width="25" height="25"/><text font-family="NotoSans, 'Helvetica Neue', Roboto, Helvetica, Arial, sans-serif" font-size="12" font-weight="bold" lengthAdjust="spacingAndGlyphs" style="fill:#FFFFFF;"><tspan y="18" x="86" text-anchor="middle" textLength="32">IMDS</tspan><tspan y="36" x="86" text-anchor="middle" textLength="100">(SharePoint Site)</tspan></text></g><g transform="translate(546.2768000000001,-357.33035000000007)"><rect x="0" y="0" width="144" height="48" border="1" rx="10" ry="10" style="fill:#289548;stroke:#707070;stroke-width:1px;"/><image xlink:href="image6.png" x="6" y="6" width="36" height="36"/><text font-family="NotoSans, 'Helvetica Neue', Roboto, Helvetica, Arial, sans-serif" font-size="12" font-weight="bold" lengthAdjust="spacingAndGlyphs" style="fill:#FFFFFF;"><tspan y="27" x="93" text-anchor="middle" textLength="91">List: Sent MDSs</tspan></text></g><g transform="translate(546.2768000000001,-289.33035000000007)"><rect x="0" y="0" width="187" height="48" border="1" rx="10" ry="10" style="fill:#289548;stroke:#707070;stroke-width:1px;"/><image xlink:href="image7.png" x="6" y="6" width="36" height="36"/><text font-family="NotoSans, 'Helvetica Neue', Roboto, Helvetica, Arial, sans-serif" font-size="12" font-weight="bold" lengthAdjust="spacingAndGlyphs" style="fill:#FFFFFF;"><tspan y="18" x="114" text-anchor="middle" textLength="58">List: PFAS</tspan><tspan y="36" x="114" text-anchor="middle" textLength="123">Submissions Tracker</tspan></text></g><g transform="translate(546.2768000000001,-221.33035000000007)"><rect x="0" y="0" width="172" height="48" border="1" rx="10" ry="10" style="fill:#289548;stroke:#707070;stroke-width:1px;"/><image xlink:href="image8.png" x="6" y="6" width="36" height="36"/><text font-family="NotoSans, 'Helvetica Neue', Roboto, Helvetica, Arial, sans-serif" font-size="12" font-weight="bold" lengthAdjust="spacingAndGlyphs" style="fill:#FFFFFF;"><tspan y="18" x="107" text-anchor="middle" textLength="119">Catalog: Companies</tspan><tspan y="36" x="107" text-anchor="middle" textLength="27">(list)</tspan></text></g><g transform="translate(546.2768000000001,-153.33035000000007)"><rect x="0" y="0" width="164" height="48" border="1" rx="10" ry="10" style="fill:#289548;stroke:#707070;stroke-width:1px;"/><image xlink:href="image9.png" x="6" y="6" width="36" height="36"/><text font-family="NotoSans, 'Helvetica Neue', Roboto, Helvetica, Arial, sans-serif" font-size="12" font-weight="bold" lengthAdjust="spacingAndGlyphs" style="fill:#FFFFFF;"><tspan y="18" x="103" text-anchor="middle" textLength="111">Catalog: Locations</tspan><tspan y="36" x="103" text-anchor="middle" textLength="27">(list)</tspan></text></g><g transform="translate(546.2768000000001,-85.33035000000007)"><rect x="0" y="0" width="203" height="48" border="1" rx="10" ry="10" style="fill:#289548;stroke:#707070;stroke-width:1px;"/><image xlink:href="image10.png" x="6" y="6" width="36" height="36"/><text font-family="NotoSans, 'Helvetica Neue', Roboto, Helvetica, Arial, sans-serif" font-size="12" font-weight="bold" lengthAdjust="spacingAndGlyphs" style="fill:#FFFFFF;"><tspan y="18" x="122" text-anchor="middle" textLength="149">Catalog: Basic Substance</tspan><tspan y="36" x="122" text-anchor="middle" textLength="27">(list)</tspan></text></g><g transform="translate(187,-3.5920505523682777)"><rect x="0" y="0" width="124" height="48" border="1" rx="10" ry="10" style="fill:#E0E0E0;stroke:#707070;stroke-width:1px;"/><image xlink:href="image11.png" x="6" y="6" width="36" height="36"/><text font-family="NotoSans, 'Helvetica Neue', Roboto, Helvetica, Arial, sans-serif" font-size="12" font-weight="bold" lengthAdjust="spacingAndGlyphs" style="fill:#4F4F4F;"><tspan y="27" x="83" text-anchor="middle" textLength="71">Power Apps</tspan></text></g><g transform="translate(331,-3.5920505523682777)"><rect x="0" y="0" width="200" height="48" border="1" rx="10" ry="10" style="fill:#1f3464;stroke:#707070;stroke-width:1px;"/><image xlink:href="image12.png" x="6" y="12" width="24" height="24"/><text font-family="NotoSans, 'Helvetica Neue', Roboto, Helvetica, Arial, sans-serif" font-size="12" font-weight="bold" lengthAdjust="spacingAndGlyphs" style="fill:#FFFFFF;"><tspan y="18" x="115" text-anchor="middle" textLength="158">Material Data Sheet (MDS)</tspan><tspan y="36" x="115" text-anchor="middle" textLength="84">Request Form</tspan></text></g><g transform="translate(82,181.40794944763172)"><rect x="0" y="0" width="100" height="48" border="1" rx="10" ry="10" style="fill:#289548;stroke:#707070;stroke-width:1px;"/><image xlink:href="image13.png" x="6" y="6" width="36" height="36"/><text font-family="NotoSans, 'Helvetica Neue', Roboto, Helvetica, Arial, sans-serif" font-size="12" font-weight="bold" lengthAdjust="spacingAndGlyphs" style="fill:#FFFFFF;"><tspan y="27" x="71" text-anchor="middle" textLength="47">Reports</tspan></text></g><g transform="translate(202,79.484375)"><rect x="0" y="0" width="107" height="48" border="1" rx="10" ry="10" style="fill:#E0E0E0;stroke:#707070;stroke-width:1px;"/><image xlink:href="image14.png" x="6" y="6" width="36" height="36"/><text font-family="NotoSans, 'Helvetica Neue', Roboto, Helvetica, Arial, sans-serif" font-size="12" font-weight="bold" lengthAdjust="spacingAndGlyphs" style="fill:#4F4F4F;"><tspan y="27" x="74" text-anchor="middle" textLength="54">Power BI</tspan></text></g><g transform="translate(334,78.54517936706554)"><rect x="0" y="0" width="117" height="48" border="1" rx="10" ry="10" style="fill:#1f3464;stroke:#707070;stroke-width:1px;"/><image xlink:href="image15.png" x="6" y="12" width="25" height="25"/><text font-family="NotoSans, 'Helvetica Neue', Roboto, Helvetica, Arial, sans-serif" font-size="12" font-weight="bold" lengthAdjust="spacingAndGlyphs" style="fill:#FFFFFF;"><tspan y="18" x="74" text-anchor="middle" textLength="32">IMDS</tspan><tspan y="36" x="74" text-anchor="middle" textLength="75">(Workspace)</tspan></text></g><g transform="translate(471,84.54517936706554)"><rect x="0" y="0" width="156" height="36" border="1" rx="10" ry="10" style="fill:#289548;stroke:#707070;stroke-width:1px;"/><image xlink:href="image16.png" x="6" y="6" width="24" height="24"/><text font-family="NotoSans, 'Helvetica Neue', Roboto, Helvetica, Arial, sans-serif" font-size="12" font-weight="bold" lengthAdjust="spacingAndGlyphs" style="fill:#FFFFFF;"><tspan y="21" x="93" text-anchor="middle" textLength="115">Reports Repository</tspan></text></g><g transform="translate(202,257.0954494476317)"><rect x="0" y="0" width="166" height="48" border="1" rx="10" ry="10" style="fill:#E0E0E0;stroke:#707070;stroke-width:1px;"/><image xlink:href="image17.png" x="6" y="6" width="36" height="36"/><text font-family="NotoSans, 'Helvetica Neue', Roboto, Helvetica, Arial, sans-serif" font-size="12" font-weight="bold" lengthAdjust="spacingAndGlyphs" style="fill:#4F4F4F;"><tspan y="27" x="104" text-anchor="middle" textLength="113">Teams/ SharePoint</tspan></text></g></g></svg>