<?xml version="1.0" encoding="UTF-8"?>
<svg xmlns="http://www.w3.org/2000/svg" xmlns:xlink="http://www.w3.org/1999/xlink" width="1290" height="895.2259255523683"><defs><style type="text/css"><![CDATA[@import url("https://atlas.mindmup.com/_resources/22/fonts.css")]]></style></defs><rect width="100%" height="100%" fill="#FFFFFF"/><g transform="translate(495,509.7014255523683)" style="fill:none;"><g transform="translate(-279,-148)"><path d="M171,30Q171,410.6 361,353" stroke="#707070" stroke-width="1" stroke-linecap="round"/></g><g transform="translate(82,74.48607063293446)"><path d="M50,131Q50,-33.599999999999994 120,24" stroke="#707070" stroke-width="1" stroke-linecap="round"/></g><g transform="translate(202,74.48607063293446)"><path d="M97,24Q97,25 127,25" stroke="#707070" stroke-width="1" stroke-linecap="round"/></g><g transform="translate(329,80.55518677091595)"><path d="M136,18Q136,19 166,19" stroke="#707070" stroke-width="1" stroke-linecap="round"/></g><g transform="translate(82,181.40794944763172)"><path d="M50,24Q50,157 120,100" stroke="#707070" stroke-width="1" stroke-linecap="round"/></g><g transform="translate(-409,-216.30958041048052)"><path d="M301,98Q301,-31.5 109,24" stroke="#707070" stroke-width="1" stroke-linecap="round"/></g><g transform="translate(-396,-148)"><path d="M288,30Q288,365.6 96,308" stroke="#707070" stroke-width="1" stroke-linecap="round"/></g><g transform="translate(-279,-278.7014255523683)"><path d="M171,161Q171,-33.599999999999994 361,24" stroke="#707070" stroke-width="1" stroke-linecap="round"/></g><g transform="translate(82,-479.7014255523683)"><path d="M43,225Q43,-24.599999999999994 105,33" stroke="#707070" stroke-width="1" stroke-linecap="round"/></g><g transform="translate(82,-278.7014255523683)"><path d="M43,24Q43,201.6 105,144" stroke="#707070" stroke-width="1" stroke-linecap="round"/></g><g transform="translate(187,-275.7706755523683)"><path d="M83,141Q83,-25.400000000000006 186,19" stroke="#707070" stroke-width="1" stroke-linecap="round"/></g><g transform="translate(373,-280.7706755523683)"><path d="M159,24L189,24" stroke="#707070" stroke-width="1" stroke-linecap="round"/></g><g transform="translate(373,-275.7706755523683)"><path d="M85,19Q85,131.4 189,87" stroke="#707070" stroke-width="1" stroke-linecap="round"/></g><g transform="translate(373,-275.7706755523683)"><path d="M85,19Q85,199.4 189,155" stroke="#707070" stroke-width="1" stroke-linecap="round"/></g><g transform="translate(373,-416.7706755523683)"><path d="M85,160Q85,-20.400000000000006 189,24" stroke="#707070" stroke-width="1" stroke-linecap="round"/></g><g transform="translate(373,-348.7706755523683)"><path d="M85,92Q85,-20.400000000000006 189,24" stroke="#707070" stroke-width="1" stroke-linecap="round"/></g><g transform="translate(82,-278.7014255523683)"><path d="M43,24Q43,283.6 105,226" stroke="#707070" stroke-width="1" stroke-linecap="round"/></g><g transform="translate(187,-76.70142555236828)"><path d="M114,24L144,24" stroke="#707070" stroke-width="1" stroke-linecap="round"/></g><g transform="translate(82,-343.7014255523683)"><path d="M43,89Q43,-24.75 105,24" stroke="#707070" stroke-width="1" stroke-linecap="round"/></g><g transform="translate(82,-393.7014255523683)"><path d="M43,139Q43,-21 105,15" stroke="#707070" stroke-width="1" stroke-linecap="round"/></g><g transform="translate(-422,-148)"><path d="M314,30Q314,537.6 122,480" stroke="#707070" stroke-width="1" stroke-linecap="round"/></g><g transform="translate(-465,-148)"><path d="M357,30Q357,208.6 165,151" stroke="#707070" stroke-width="1" stroke-linecap="round"/></g><g transform="translate(-418,-343.82644081115734)"><path d="M310,226Q310,-33.60000000000002 118,24" stroke="#707070" stroke-width="1" stroke-linecap="round"/></g><g transform="translate(-409,-275.7706755523683)"><path d="M782,19L109,83" stroke-dasharray="4, 4" stroke="#289548" stroke-width="1"/><path d="M123,87L109,83L122,77Z" fill="#289548" stroke="#289548" stroke-width="1"/></g><g transform="translate(-422,-275.7706755523683)"><path d="M795,19L122,607" stroke-dasharray="4, 4" stroke="#289548" stroke-width="1"/><path d="M135,602L122,607L129,595Z" fill="#289548" stroke="#289548" stroke-width="1"/></g><g transform="translate(562,-416.7706755523683)"><path d="M72,48L94,68" stroke-dasharray="4, 4" stroke="#289548" stroke-width="1"/><path d="M87,56L94,68L81,63Z" fill="#289548" stroke="#289548" stroke-width="1"/></g><g transform="translate(-418,-343.82644081115734)"><path d="M791,87L118,24" stroke-dasharray="4, 4" stroke="#289548" stroke-width="1"/><path d="M131,30L118,24L132,20Z" fill="#289548" stroke="#289548" stroke-width="1"/></g><g transform="translate(562,-348.7706755523683)"><path d="M102,204L94,48" stroke-dasharray="4, 4" stroke="#289548" stroke-width="1"/><path d="M90,61L94,48L99,61Z" fill="#289548" stroke="#289548" stroke-width="1"/></g><g transform="translate(82,-275.7706755523683)"><path d="M291,19L50,457" stroke-dasharray="4, 4" stroke="#289548" stroke-width="1"/><path d="M61,448L50,457L52,443Z" fill="#289548" stroke="#289548" stroke-width="1"/></g><g transform="translate(-279,-148)"><rect x="0" y="0" width="341" height="60" border="1" rx="10" ry="10" style="fill:#1f3464;stroke:#707070;stroke-width:1px;"/><image xlink:href="image1.png" x="6" y="6" width="80" height="48"/><text font-family="NotoSans, 'Helvetica Neue', Roboto, Helvetica, Arial, sans-serif" font-size="18" font-weight="bold" lengthAdjust="spacingAndGlyphs" style="fill:#FFFFFF;"><tspan y="35" x="213" text-anchor="middle" textLength="244">IMDS – Inalfa Roof Systems</tspan></text></g><g transform="translate(-418,-343.82644081115734)"><rect x="0" y="0" width="118" height="48" border="1" rx="10" ry="10" style="fill:#289548;stroke:#707070;stroke-width:1px;"/><image xlink:href="image18.png" x="76" y="6" width="36" height="36"/><text font-family="NotoSans, 'Helvetica Neue', Roboto, Helvetica, Arial, sans-serif" font-size="12" font-weight="bold" lengthAdjust="spacingAndGlyphs" style="fill:#FFFFFF;"><tspan y="27" x="39" text-anchor="middle" textLength="65">Customers</tspan></text></g><g transform="translate(-409,-216.30958041048052)"><rect x="0" y="0" width="109" height="48" border="1" rx="10" ry="10" style="fill:#289548;stroke:#707070;stroke-width:1px;"/><image xlink:href="image19.png" x="67" y="6" width="36" height="36"/><text font-family="NotoSans, 'Helvetica Neue', Roboto, Helvetica, Arial, sans-serif" font-size="12" font-weight="bold" lengthAdjust="spacingAndGlyphs" style="fill:#FFFFFF;"><tspan y="27" x="34" text-anchor="middle" textLength="56">Suppliers</tspan></text></g><g transform="translate(-465,-21.15333041048052)"><rect x="0" y="0" width="165" height="48" border="1" rx="10" ry="10" style="fill:#289548;stroke:#707070;stroke-width:1px;"/><image xlink:href="image21.png" x="123" y="6" width="36" height="36"/><text font-family="NotoSans, 'Helvetica Neue', Roboto, Helvetica, Arial, sans-serif" font-size="12" font-weight="bold" lengthAdjust="spacingAndGlyphs" style="fill:#FFFFFF;"><tspan y="27" x="62" text-anchor="middle" textLength="112">Support from/ to...</tspan></text></g><g transform="translate(-396,135.671875)"><rect x="0" y="0" width="96" height="48" border="1" rx="10" ry="10" style="fill:#289548;stroke:#707070;stroke-width:1px;"/><image xlink:href="image22.png" x="54" y="6" width="36" height="36"/><text font-family="NotoSans, 'Helvetica Neue', Roboto, Helvetica, Arial, sans-serif" font-size="12" font-weight="bold" lengthAdjust="spacingAndGlyphs" style="fill:#FFFFFF;"><tspan y="27" x="28" text-anchor="middle" textLength="43">Portals</tspan></text></g><g transform="translate(-422,307.5245)"><rect x="0" y="0" width="122" height="48" border="1" rx="10" ry="10" style="fill:#289548;stroke:#707070;stroke-width:1px;"/><image xlink:href="image23.png" x="80" y="6" width="36" height="36"/><text font-family="NotoSans, 'Helvetica Neue', Roboto, Helvetica, Arial, sans-serif" font-size="12" font-weight="bold" lengthAdjust="spacingAndGlyphs" style="fill:#FFFFFF;"><tspan y="27" x="41" text-anchor="middle" textLength="69">Documents</tspan></text></g><g transform="translate(82,-278.7014255523683)"><rect x="0" y="0" width="85" height="48" border="1" rx="10" ry="10" style="fill:#289548;stroke:#707070;stroke-width:1px;"/><image xlink:href="image2.png" x="6" y="6" width="36" height="36"/><text font-family="NotoSans, 'Helvetica Neue', Roboto, Helvetica, Arial, sans-serif" font-size="12" font-weight="bold" lengthAdjust="spacingAndGlyphs" style="fill:#FFFFFF;"><tspan y="27" x="63" text-anchor="middle" textLength="32">Tools</tspan></text></g><g transform="translate(187,-479.7014255523683)"><rect x="0" y="0" width="158" height="66" border="1" rx="10" ry="10" style="fill:#E0E0E0;stroke:#707070;stroke-width:1px;"/><text font-family="NotoSans, 'Helvetica Neue', Roboto, Helvetica, Arial, sans-serif" font-size="12" font-weight="bold" lengthAdjust="spacingAndGlyphs" style="fill:#4F4F4F;"><tspan y="18" x="79" text-anchor="middle" textLength="50">MatWeb</tspan><tspan y="36" x="79" text-anchor="middle" textLength="126">MATERIAL PROPERTY</tspan><tspan y="54" x="79" text-anchor="middle" textLength="32">DATA</tspan></text></g><g transform="translate(187,-393.7014255523683)"><rect x="0" y="0" width="55" height="30" border="1" rx="10" ry="10" style="fill:#E0E0E0;stroke:#707070;stroke-width:1px;"/><text font-family="NotoSans, 'Helvetica Neue', Roboto, Helvetica, Arial, sans-serif" font-size="12" font-weight="bold" lengthAdjust="spacingAndGlyphs" style="fill:#4F4F4F;"><tspan y="18" x="28" text-anchor="middle" textLength="43">CAMDS</tspan></text></g><g transform="translate(187,-343.7014255523683)"><rect x="0" y="0" width="85" height="48" border="1" rx="10" ry="10" style="fill:#E0E0E0;stroke:#707070;stroke-width:1px;"/><image xlink:href="image3.png" x="6" y="6" width="36" height="36"/><text font-family="NotoSans, 'Helvetica Neue', Roboto, Helvetica, Arial, sans-serif" font-size="12" font-weight="bold" lengthAdjust="spacingAndGlyphs" style="fill:#4F4F4F;"><tspan y="27" x="63" text-anchor="middle" textLength="32">IMDS</tspan></text></g><g transform="translate(187,-158.70142555236828)"><rect x="0" y="0" width="166" height="48" border="1" rx="10" ry="10" style="fill:#E0E0E0;stroke:#707070;stroke-width:1px;"/><image xlink:href="image4.png" x="6" y="6" width="36" height="36"/><text font-family="NotoSans, 'Helvetica Neue', Roboto, Helvetica, Arial, sans-serif" font-size="12" font-weight="bold" lengthAdjust="spacingAndGlyphs" style="fill:#4F4F4F;"><tspan y="27" x="104" text-anchor="middle" textLength="113">SharePoint/ Teams</tspan></text></g><g transform="translate(373,-275.7706755523683)"><rect x="0" y="0" width="169" height="37" border="1" rx="10" ry="10" style="fill:#1f3464;stroke:#707070;stroke-width:1px;"/><image xlink:href="image5.png" x="6" y="6" width="25" height="25"/><text font-family="NotoSans, 'Helvetica Neue', Roboto, Helvetica, Arial, sans-serif" font-size="12" font-weight="bold" lengthAdjust="spacingAndGlyphs" style="fill:#FFFFFF;"><tspan y="22" x="100" text-anchor="middle" textLength="127">IMDS SharePoint Site</tspan></text></g><g transform="translate(562,-416.7706755523683)"><rect x="0" y="0" width="144" height="48" border="1" rx="10" ry="10" style="fill:#289548;stroke:#707070;stroke-width:1px;"/><image xlink:href="image6.png" x="6" y="6" width="36" height="36"/><text font-family="NotoSans, 'Helvetica Neue', Roboto, Helvetica, Arial, sans-serif" font-size="12" font-weight="bold" lengthAdjust="spacingAndGlyphs" style="fill:#FFFFFF;"><tspan y="27" x="93" text-anchor="middle" textLength="91">List: Sent MDSs</tspan></text></g><g transform="translate(562,-348.7706755523683)"><rect x="0" y="0" width="187" height="48" border="1" rx="10" ry="10" style="fill:#289548;stroke:#707070;stroke-width:1px;"/><image xlink:href="image7.png" x="6" y="6" width="36" height="36"/><text font-family="NotoSans, 'Helvetica Neue', Roboto, Helvetica, Arial, sans-serif" font-size="12" font-weight="bold" lengthAdjust="spacingAndGlyphs" style="fill:#FFFFFF;"><tspan y="18" x="114" text-anchor="middle" textLength="58">List: PFAS</tspan><tspan y="36" x="114" text-anchor="middle" textLength="123">Submissions Tracker</tspan></text></g><g transform="translate(562,-280.7706755523683)"><rect x="0" y="0" width="172" height="48" border="1" rx="10" ry="10" style="fill:#289548;stroke:#707070;stroke-width:1px;"/><image xlink:href="image8.png" x="6" y="6" width="36" height="36"/><text font-family="NotoSans, 'Helvetica Neue', Roboto, Helvetica, Arial, sans-serif" font-size="12" font-weight="bold" lengthAdjust="spacingAndGlyphs" style="fill:#FFFFFF;"><tspan y="18" x="107" text-anchor="middle" textLength="119">Catalog: Companies</tspan><tspan y="36" x="107" text-anchor="middle" textLength="27">(list)</tspan></text></g><g transform="translate(562,-212.7706755523683)"><rect x="0" y="0" width="164" height="48" border="1" rx="10" ry="10" style="fill:#289548;stroke:#707070;stroke-width:1px;"/><image xlink:href="image9.png" x="6" y="6" width="36" height="36"/><text font-family="NotoSans, 'Helvetica Neue', Roboto, Helvetica, Arial, sans-serif" font-size="12" font-weight="bold" lengthAdjust="spacingAndGlyphs" style="fill:#FFFFFF;"><tspan y="18" x="103" text-anchor="middle" textLength="111">Catalog: Locations</tspan><tspan y="36" x="103" text-anchor="middle" textLength="27">(list)</tspan></text></g><g transform="translate(562,-144.7706755523683)"><rect x="0" y="0" width="203" height="48" border="1" rx="10" ry="10" style="fill:#289548;stroke:#707070;stroke-width:1px;"/><image xlink:href="image10.png" x="6" y="6" width="36" height="36"/><text font-family="NotoSans, 'Helvetica Neue', Roboto, Helvetica, Arial, sans-serif" font-size="12" font-weight="bold" lengthAdjust="spacingAndGlyphs" style="fill:#FFFFFF;"><tspan y="18" x="122" text-anchor="middle" textLength="149">Catalog: Basic Substance</tspan><tspan y="36" x="122" text-anchor="middle" textLength="27">(list)</tspan></text></g><g transform="translate(187,-76.70142555236828)"><rect x="0" y="0" width="124" height="48" border="1" rx="10" ry="10" style="fill:#E0E0E0;stroke:#707070;stroke-width:1px;"/><image xlink:href="image11.png" x="6" y="6" width="36" height="36"/><text font-family="NotoSans, 'Helvetica Neue', Roboto, Helvetica, Arial, sans-serif" font-size="12" font-weight="bold" lengthAdjust="spacingAndGlyphs" style="fill:#4F4F4F;"><tspan y="27" x="83" text-anchor="middle" textLength="71">Power Apps</tspan></text></g><g transform="translate(331,-76.70142555236828)"><rect x="0" y="0" width="200" height="48" border="1" rx="10" ry="10" style="fill:#1f3464;stroke:#707070;stroke-width:1px;"/><image xlink:href="image12.png" x="6" y="12" width="24" height="24"/><text font-family="NotoSans, 'Helvetica Neue', Roboto, Helvetica, Arial, sans-serif" font-size="12" font-weight="bold" lengthAdjust="spacingAndGlyphs" style="fill:#FFFFFF;"><tspan y="18" x="115" text-anchor="middle" textLength="158">Material Data Sheet (MDS)</tspan><tspan y="36" x="115" text-anchor="middle" textLength="84">Request Form</tspan></text></g><g transform="translate(82,181.40794944763172)"><rect x="0" y="0" width="100" height="48" border="1" rx="10" ry="10" style="fill:#289548;stroke:#707070;stroke-width:1px;"/><image xlink:href="image13.png" x="6" y="6" width="36" height="36"/><text font-family="NotoSans, 'Helvetica Neue', Roboto, Helvetica, Arial, sans-serif" font-size="12" font-weight="bold" lengthAdjust="spacingAndGlyphs" style="fill:#FFFFFF;"><tspan y="27" x="71" text-anchor="middle" textLength="47">Reports</tspan></text></g><g transform="translate(202,74.48607063293446)"><rect x="0" y="0" width="107" height="48" border="1" rx="10" ry="10" style="fill:#E0E0E0;stroke:#707070;stroke-width:1px;"/><image xlink:href="image14.png" x="6" y="6" width="36" height="36"/><text font-family="NotoSans, 'Helvetica Neue', Roboto, Helvetica, Arial, sans-serif" font-size="12" font-weight="bold" lengthAdjust="spacingAndGlyphs" style="fill:#4F4F4F;"><tspan y="27" x="74" text-anchor="middle" textLength="54">Power BI</tspan></text></g><g transform="translate(329,80.55518677091595)"><rect x="0" y="0" width="146" height="37" border="1" rx="10" ry="10" style="fill:#1f3464;stroke:#707070;stroke-width:1px;"/><image xlink:href="image15.png" x="6" y="6" width="25" height="25"/><text font-family="NotoSans, 'Helvetica Neue', Roboto, Helvetica, Arial, sans-serif" font-size="12" font-weight="bold" lengthAdjust="spacingAndGlyphs" style="fill:#FFFFFF;"><tspan y="22" x="88" text-anchor="middle" textLength="104">Workspace: IMDS</tspan></text></g><g transform="translate(495,81.55518677091595)"><rect x="0" y="0" width="156" height="36" border="1" rx="10" ry="10" style="fill:#289548;stroke:#707070;stroke-width:1px;"/><image xlink:href="image16.png" x="6" y="6" width="24" height="24"/><text font-family="NotoSans, 'Helvetica Neue', Roboto, Helvetica, Arial, sans-serif" font-size="12" font-weight="bold" lengthAdjust="spacingAndGlyphs" style="fill:#FFFFFF;"><tspan y="21" x="93" text-anchor="middle" textLength="115">Reports Repository</tspan></text></g><g transform="translate(202,257.0954494476317)"><rect x="0" y="0" width="166" height="48" border="1" rx="10" ry="10" style="fill:#E0E0E0;stroke:#707070;stroke-width:1px;"/><image xlink:href="image17.png" x="6" y="6" width="36" height="36"/><text font-family="NotoSans, 'Helvetica Neue', Roboto, Helvetica, Arial, sans-serif" font-size="12" font-weight="bold" lengthAdjust="spacingAndGlyphs" style="fill:#4F4F4F;"><tspan y="27" x="104" text-anchor="middle" textLength="113">Teams/ SharePoint</tspan></text></g></g></svg>